Coordinates
version=1
nRows=4
nColumns=63
inDegrees=yes

Units are S.I. units (second, meters, Newtons, ...)
If the header above contains a line with 'inDegrees', this indicates whether rotational values are in degrees (yes) or radians (no).

endheader
time	pelvis_tilt	pelvis_list	pelvis_rotation	pelvis_tx	pelvis_ty	pelvis_tz	hip_flexion_r	hip_adduction_r	hip_rotation_r	knee_angle_r	knee_angle_r_beta	ankle_angle_r	subtalar_angle_r	mtp_angle_r	hip_flexion_l	hip_adduction_l	hip_rotation_l	knee_angle_l	knee_angle_l_beta	ankle_angle_l	subtalar_angle_l	mtp_angle_l	L5_S1_Flex_Ext	L5_S1_Lat_Bending	L5_S1_axial_rotation	L4_L5_Flex_Ext	L4_L5_Lat_Bending	L4_L5_axial_rotation	L3_L4_Flex_Ext	L3_L4_Lat_Bending	L3_L4_axial_rotation	L2_L3_Flex_Ext	L2_L3_Lat_Bending	L2_L3_axial_rotation	L1_L2_Flex_Ext	L1_L2_Lat_Bending	L1_L2_axial_rotation	L1_T12_Flex_Ext	L1_T12_Lat_Bending	L1_T12_axial_rotation	Abs_r3	Abs_r2	Abs_r1	Abs_t1	Abs_t2	neck_flexion	neck_bending	neck_rotation	arm_flex_r	arm_add_r	arm_rot_r	elbow_flex_r	pro_sup_r	wrist_flex_r	wrist_dev_r	arm_flex_l	arm_add_l	arm_rot_l	elbow_flex_l	pro_sup_l	wrist_flex_l	wrist_dev_l
      2.50000000	     11.60123619	     -0.29564273	     85.67950894	      0.46560857	      0.58879871	      0.67907952	     -1.79384247	      9.04380913	      2.16136614	      6.20385476	      0.10827769	     19.21983557	     -1.49322895	      0.00000000	      4.46325689	     -6.85106096	      3.19596380	     18.96315694	      0.33096953	     32.86844176	    -14.35391632	      0.00000000	     -0.36880004	      0.94506639	      1.09952735	     -0.68489856	      1.25693830	      1.16824781	     -0.60590159	      2.29783442	      1.16824781	     -0.42150157	      2.29783442	      0.96208644	     -0.34246772	      1.92717938	      0.89336598	     -0.21073235	      1.46390783	      0.82464552	     -2.63430183	     10.69077999	      6.11524129	      0.00000000	      0.00000000	      7.55656590	    -11.58549277	      7.45848425	      0.78276618	    -15.06937345	    169.51805365	      3.27831723	     11.84633175	    -10.18144410	     -1.80566054	     12.79615708	     -3.96916047	    158.47165156	      0.96091630	     21.09796948	    -32.68570071	     -7.51244359
      2.52000000	     11.65499483	     -0.65708318	     85.54311119	      0.46468213	      0.58769734	      0.67907757	     -1.94722685	      8.96069140	      2.93230200	      5.25323032	      0.09168617	     19.01708912	     -1.11399419	      0.00000000	      5.22758737	     -6.80887025	      3.38014148	     19.62311040	      0.34248789	     33.08012668	    -14.74593117	      0.00000000	     -0.34615552	      0.95331209	      0.94835324	     -0.64284541	      1.26790508	      1.00762531	     -0.56869890	      2.31788302	      1.00762531	     -0.39562114	      2.31788302	      0.82980908	     -0.32144001	      1.94399401	      0.77053701	     -0.19779326	      1.47668043	      0.71126493	     -2.47255423	     10.78405702	      5.27445620	      0.00000000	      0.00000000	      8.00550509	    -10.46454763	      8.61351725	      1.32363622	    -15.31984525	    169.51266657	      3.20438304	     11.64108297	    -10.57107818	     -0.97458133	     11.64743012	     -4.25970880	    159.70152690	      0.86683032	     22.45385744	    -31.73996414	     -7.07937648
      2.54000000	     11.72897153	     -0.98420637	     85.70841709	      0.46314924	      0.58651705	      0.67962090	     -1.97598990	      8.90283275	      3.51880700	      4.52842512	      0.07903593	     18.63822320	     -1.14296335	      0.00000000	      6.05602820	     -6.72790372	      3.98483342	     20.25526657	      0.35352109	     33.26814044	    -15.44427889	      0.00000000	     -0.32899752	      0.96139555	      0.82168341	     -0.61098130	      1.27865608	      0.87303862	     -0.54051003	      2.33753714	      0.87303862	     -0.37601127	      2.33753714	      0.71897298	     -0.30550710	      1.96047781	      0.66761777	     -0.18798919	      1.48920171	      0.61626256	     -2.34999642	     10.87549874	      4.56995661	      0.00000000	      0.00000000	      8.53901553	     -9.88329301	      8.49907866	      1.83440041	    -15.62313438	    167.29931843	      2.99912605	     10.18930425	    -10.49586377	     -1.06017094	     10.53883089	     -4.47882318	    160.99304874	      0.74251452	     22.85390818	    -29.96423216	     -5.50055615
      2.56000000	     11.77817919	     -1.28574761	     86.01111393	      0.46159145	      0.58525188	      0.68038092	     -1.88026640	      8.84099500	      3.51171768	      4.05520847	      0.07077674	     18.50917967	     -0.89744341	      0.00000000	      6.84482537	     -6.65563185	      4.48512856	     20.80852667	      0.36317730	     33.63611071	    -15.56632790	      0.00000000	     -0.31178152	      0.95742678	      0.75802545	     -0.57900945	      1.27337762	      0.80540204	     -0.51222585	      2.32788747	      0.80540204	     -0.35633509	      2.32788747	      0.66327227	     -0.28952032	      1.95238469	      0.61589568	     -0.17815196	      1.48305408	      0.56851909	     -2.22702419	     10.83060321	      4.21591014	      0.00000000	      0.00000000	      9.18309264	     -9.27628177	      7.73971561	      2.20947050	    -15.86520797	    162.46730035	      2.86959717	      6.92392842	     -9.69967016	     -2.12154733	      9.27694722	     -4.95992264	    160.72222607	      0.68483892	     20.55823647	    -29.74806047	     -6.50281328
